<!DOCTYPE svg PUBLIC "-//W3C//DTD SVG 1.1//EN" "http://www.w3.org/Graphics/SVG/1.1/DTD/svg11.dtd">
<!-- Uploaded to: SVG Repo, www.svgrepo.com, Transformed by: SVG Repo Mixer Tools -->
<svg fill="#eeeeee" height="800px" width="800px" version="1.1" id="Layer_1" xmlns="http://www.w3.org/2000/svg" xmlns:xlink="http://www.w3.org/1999/xlink" viewBox="0 0 512 512" xml:space="preserve" stroke="#eeeeee">
<g id="SVGRepo_bgCarrier" stroke-width="0"/>
<g id="SVGRepo_tracerCarrier" stroke-linecap="round" stroke-linejoin="round"/>
<g id="SVGRepo_iconCarrier"> <g> <g> <path d="M511.1,124.593c0.223,0.464,0.844,1.756-0.003-0.007c-0.083-0.172-0.082-0.17-0.041-0.084 c-0.756-1.555-10.394-21.056-25.929-36.235c-12.354-12.069-32.473-17.004-42.989-18.84c-2.336-10.333-7.981-30.254-18.916-43.355 C405.729,5.115,386.33,0.426,385.513,0.236c-4.651-1.073-9.352,1.6-10.797,6.151L338.5,120.461 c-12.453-12.453-70.031-32.849-122.715-18.798c-15.267,4.072-29.885,10.6-43.452,19.405c-10.279,6.39-19.869,14.008-28.504,22.643 c-52.749,52.75-60.5,133.708-23.272,194.761L6.385,374.719c-5.225,1.659-7.863,7.748-5.482,12.699 c0.407,0.844,10.124,20.837,25.97,36.319c12.354,12.069,32.473,17.004,42.989,18.84c2.336,10.333,7.981,30.254,18.916,43.355 c17.492,20.957,36.892,25.646,37.709,25.835c4.594,1.066,9.371-1.657,10.797-6.151l36.261-114.215 c25.227,15.348,53.838,23.032,82.456,23.032c40.622,0,81.244-15.463,112.169-46.387c29.961-29.961,46.462-69.797,46.462-112.168 c0-29.529-8.021-57.82-23.02-82.401l114.005-36.193C510.837,135.627,513.476,129.543,511.1,124.593z M122.812,490.666 c-5.368-2.832-12.797-7.872-19.972-16.469c-11.741-14.066-16.182-40.944-16.225-41.206c-0.657-4.127-4.027-7.286-8.19-7.677 c-7.301-0.684-28.493-4.654-38.752-14.676c-7.268-7.101-13.146-15.552-17.033-21.86l107.628-34.169l27.129,27.129L122.812,490.666 z M396.316,255.881c-0.001,37.479-14.596,72.715-41.099,99.217c-27.356,27.358-63.281,41.034-99.217,41.031 c-35.927-0.004-71.867-13.68-99.217-41.031c-54.709-54.709-54.709-143.726,0-198.434c7.664-7.665,43.352-41.712,97.504-41.712 c64.804,0,104.205,45.109,104.205,45.109C382.914,186.141,396.316,219.979,396.316,255.881z M381.732,157.397 c0,0-12.382-12.503-13.564-13.686c-1.138-1.138-13.564-13.442-13.564-13.442l34.576-108.91c5.394,2.845,12.836,7.89,19.98,16.45 c11.741,14.066,16.182,40.944,16.225,41.206c0.657,4.127,4.027,7.286,8.19,7.677c7.301,0.684,28.493,4.654,38.752,14.676 c7.268,7.101,13.146,15.552,17.033,21.86L381.732,157.397z"/> </g> </g> <g> <g> <path d="M326.676,320.835c-8.705-6.699-18.823-5.269-26.956-4.121c-5.286,0.747-10.282,1.451-12.574-0.355 c-1.856-1.463-2.163-4.939-2.448-10.493c-0.374-7.267-0.885-17.22-9.398-23.93c-8.376-6.603-18.196-5.186-26.082-4.052 c-6.7,0.963-10.968,1.402-13.752-0.658c-2.773-2.054-3.453-6.178-4.335-12.736c-1.076-8.015-2.417-17.99-11.375-24.52 c-9.246-6.737-19.58-4.723-27.884-3.104c-6.467,1.26-10.555,1.904-12.815,0.217c-2.246-1.675-2.778-5.919-3.335-12.203 c-0.725-8.197-1.629-18.4-10.527-24.924c-4.081-2.99-9.809-2.109-12.801,1.971c-2.99,4.078-2.109,9.81,1.971,12.801 c2.061,1.51,2.569,5.64,3.113,11.768c0.734,8.271,1.645,18.564,10.626,25.267c8.923,6.657,19.097,4.674,27.273,3.081 c6.721-1.309,10.991-1.967,13.593-0.071c2.508,1.827,3.157,5.809,4.009,12.154c1.092,8.133,2.451,18.253,11.588,25.018 c9.035,6.69,19.138,5.235,27.261,4.067c6.176-0.89,10.077-1.313,12.134,0.308c1.852,1.459,2.159,4.936,2.443,10.486 c0.375,7.268,0.886,17.222,9.401,23.936c8.438,6.653,18.44,5.241,26.472,4.108c6.612-0.933,10.803-1.365,13.226,0.501 c1.664,1.281,3.63,1.901,5.578,1.901c2.746,0,5.462-1.23,7.266-3.574C331.434,329.669,330.685,323.919,326.676,320.835z"/> </g> </g> <g> <g> <path d="M366.207,281.301c-8.705-6.695-18.823-5.267-26.957-4.119c-5.287,0.745-10.282,1.451-12.572-0.357 c-1.856-1.462-2.163-4.939-2.448-10.492c-0.375-7.268-0.887-17.221-9.399-23.93c-8.376-6.601-18.193-5.188-26.08-4.052 c-6.704,0.966-10.97,1.401-13.753-0.659c-2.773-2.054-3.453-6.178-4.335-12.735c-1.076-8.015-2.417-17.992-11.375-24.52 c-9.246-6.737-19.58-4.722-27.884-3.104c-6.466,1.259-10.556,1.904-12.814,0.217c-2.246-1.675-2.778-5.919-3.335-12.202 c-0.725-8.197-1.629-18.4-10.527-24.924c-4.077-2.989-9.807-2.109-12.801,1.971c-2.99,4.078-2.109,9.81,1.971,12.801 c2.061,1.51,2.569,5.64,3.113,11.768c0.734,8.271,1.645,18.564,10.626,25.266c8.923,6.659,19.096,4.676,27.272,3.081 c6.721-1.309,10.991-1.967,13.593-0.071c2.508,1.827,3.157,5.809,4.009,12.154c1.092,8.133,2.451,18.253,11.588,25.019 c9.035,6.69,19.143,5.236,27.261,4.067c6.18-0.89,10.079-1.313,12.134,0.308c1.852,1.459,2.16,4.935,2.445,10.484 c0.374,7.268,0.887,17.222,9.4,23.936c8.44,6.654,18.437,5.241,26.474,4.108c6.612-0.932,10.802-1.364,13.224,0.501 c1.664,1.281,3.63,1.901,5.578,1.901c2.746,0,5.462-1.23,7.266-3.574C370.963,290.136,370.215,284.386,366.207,281.301z"/> </g> </g> </g>
</svg>